<mxfile host="65bd71144e">
    <diagram id="xaKh8GbzfBadFhBFje0c" name="PÃ¡gina-1">
        <mxGraphModel dx="1384" dy="731" grid="1" gridSize="10" guides="1" tooltips="1" connect="1" arrows="1" fold="1" page="1" pageScale="1" pageWidth="827" pageHeight="1169" math="0" shadow="0">
            <root>
                <mxCell id="0"/>
                <mxCell id="1" parent="0"/>
                <mxCell id="83" value="&lt;br&gt;" style="verticalAlign=bottom;endArrow=none;dashed=1;endSize=8;endFill=0;horizontal=1;html=1;startArrow=none;" parent="1" source="81" edge="1">
                    <mxGeometry relative="1" as="geometry">
                        <mxPoint x="613.91" y="520" as="sourcePoint"/>
                        <mxPoint x="613.4133333333331" y="90" as="targetPoint"/>
                    </mxGeometry>
                </mxCell>
                <mxCell id="2" value="Actor" style="shape=umlActor;verticalLabelPosition=bottom;verticalAlign=top;html=1;" parent="1" vertex="1">
                    <mxGeometry x="40" y="100" width="30" height="60" as="geometry"/>
                </mxCell>
                <mxCell id="3" value="Fachada" style="fontStyle=0;" parent="1" vertex="1">
                    <mxGeometry x="170" y="50" width="120" height="40" as="geometry"/>
                </mxCell>
                <mxCell id="4" value="Registrador" style="fontStyle=0;" parent="1" vertex="1">
                    <mxGeometry x="743.5" y="50" width="120" height="40" as="geometry"/>
                </mxCell>
                <mxCell id="5" value="Dispensador" style="fontStyle=0;" parent="1" vertex="1">
                    <mxGeometry x="916.5" y="50" width="120" height="40" as="geometry"/>
                </mxCell>
                <mxCell id="10" value="&lt;br&gt;" style="verticalAlign=bottom;endArrow=none;dashed=1;endSize=8;endFill=0;horizontal=1;html=1;startArrow=none;" parent="1" source="25" target="4" edge="1">
                    <mxGeometry relative="1" as="geometry">
                        <mxPoint x="804" y="360" as="sourcePoint"/>
                        <mxPoint x="830" y="120" as="targetPoint"/>
                    </mxGeometry>
                </mxCell>
                <mxCell id="11" value="&lt;br&gt;" style="verticalAlign=bottom;endArrow=none;dashed=1;endSize=8;endFill=0;horizontal=1;html=1;entryX=0.5;entryY=1;entryDx=0;entryDy=0;startArrow=none;" parent="1" source="14" target="3" edge="1">
                    <mxGeometry relative="1" as="geometry">
                        <mxPoint x="230" y="350" as="sourcePoint"/>
                        <mxPoint x="220" y="120" as="targetPoint"/>
                    </mxGeometry>
                </mxCell>
                <mxCell id="12" value="&lt;br&gt;" style="verticalAlign=bottom;endArrow=none;dashed=1;endSize=8;endFill=0;horizontal=1;html=1;startArrow=none;" parent="1" edge="1">
                    <mxGeometry relative="1" as="geometry">
                        <mxPoint x="976.5" y="520" as="sourcePoint"/>
                        <mxPoint x="976.0033333333333" y="90" as="targetPoint"/>
                    </mxGeometry>
                </mxCell>
                <mxCell id="13" value="&lt;br&gt;" style="html=1;verticalAlign=top;endArrow=block;horizontal=0;" parent="1" edge="1">
                    <mxGeometry width="80" relative="1" as="geometry">
                        <mxPoint x="85" y="150" as="sourcePoint"/>
                        <mxPoint x="215" y="150" as="targetPoint"/>
                    </mxGeometry>
                </mxCell>
                <mxCell id="17" value="Inserccion&lt;br style=&quot;font-size: 14px;&quot;&gt;(Alimentacion)" style="edgeLabel;html=1;align=center;verticalAlign=bottom;resizable=0;points=[];horizontal=1;fontSize=14;" parent="13" vertex="1" connectable="0">
                    <mxGeometry x="-0.1846" y="4" relative="1" as="geometry">
                        <mxPoint as="offset"/>
                    </mxGeometry>
                </mxCell>
                <mxCell id="15" value="" style="verticalAlign=bottom;endArrow=none;dashed=1;endSize=8;endFill=0;horizontal=1;html=1;entryX=0.5;entryY=1;entryDx=0;entryDy=0;" parent="1" target="14" edge="1">
                    <mxGeometry relative="1" as="geometry">
                        <mxPoint x="230" y="400" as="sourcePoint"/>
                        <mxPoint x="230" y="90" as="targetPoint"/>
                    </mxGeometry>
                </mxCell>
                <mxCell id="14" value="" style="rounded=0;whiteSpace=wrap;html=1;" parent="1" vertex="1">
                    <mxGeometry x="215" y="150" width="30" height="370" as="geometry"/>
                </mxCell>
                <mxCell id="18" value="&lt;br&gt;" style="html=1;verticalAlign=top;endArrow=block;horizontal=0;" parent="1" edge="1">
                    <mxGeometry width="80" relative="1" as="geometry">
                        <mxPoint x="85" y="189.5" as="sourcePoint"/>
                        <mxPoint x="215" y="189.5" as="targetPoint"/>
                    </mxGeometry>
                </mxCell>
                <mxCell id="19" value="Eleccion&lt;br style=&quot;font-size: 14px;&quot;&gt;(Seleccion)" style="edgeLabel;html=1;align=center;verticalAlign=bottom;resizable=0;points=[];horizontal=1;fontSize=14;" parent="18" vertex="1" connectable="0">
                    <mxGeometry x="-0.1846" y="4" relative="1" as="geometry">
                        <mxPoint as="offset"/>
                    </mxGeometry>
                </mxCell>
                <mxCell id="20" value="&lt;br&gt;" style="html=1;verticalAlign=top;endArrow=block;horizontal=0;" parent="1" edge="1">
                    <mxGeometry width="80" relative="1" as="geometry">
                        <mxPoint x="627.5" y="279.99999999999994" as="sourcePoint"/>
                        <mxPoint x="793" y="279.99999999999994" as="targetPoint"/>
                    </mxGeometry>
                </mxCell>
                <mxCell id="21" value="Enviar&lt;br style=&quot;font-size: 14px;&quot;&gt;(Alimentacion)" style="edgeLabel;html=1;align=center;verticalAlign=bottom;resizable=0;points=[];horizontal=1;fontSize=14;" parent="20" vertex="1" connectable="0">
                    <mxGeometry x="-0.1846" y="4" relative="1" as="geometry">
                        <mxPoint as="offset"/>
                    </mxGeometry>
                </mxCell>
                <mxCell id="23" value="&lt;br&gt;" style="html=1;verticalAlign=top;endArrow=none;horizontal=0;startArrow=classic;startFill=1;endFill=0;entryX=0.25;entryY=1;entryDx=0;entryDy=0;exitX=0.976;exitY=0.786;exitDx=0;exitDy=0;exitPerimeter=0;" parent="1" edge="1">
                    <mxGeometry width="80" relative="1" as="geometry">
                        <mxPoint x="244.27999999999997" y="439.82000000000016" as="sourcePoint"/>
                        <mxPoint x="971.25" y="439" as="targetPoint"/>
                    </mxGeometry>
                </mxCell>
                <mxCell id="89" value="&lt;font style=&quot;font-size: 14px;&quot;&gt;No existencia&lt;/font&gt;" style="edgeLabel;html=1;align=center;verticalAlign=bottom;resizable=0;points=[];rotation=90;horizontal=0;" parent="23" vertex="1" connectable="0">
                    <mxGeometry x="0.0593" y="1" relative="1" as="geometry">
                        <mxPoint as="offset"/>
                    </mxGeometry>
                </mxCell>
                <mxCell id="26" value="" style="verticalAlign=bottom;endArrow=none;dashed=1;endSize=8;endFill=0;horizontal=1;html=1;" parent="1" target="25" edge="1">
                    <mxGeometry relative="1" as="geometry">
                        <mxPoint x="804" y="520" as="sourcePoint"/>
                        <mxPoint x="803.5344827586207" y="120" as="targetPoint"/>
                    </mxGeometry>
                </mxCell>
                <mxCell id="25" value="" style="rounded=0;whiteSpace=wrap;html=1;" parent="1" vertex="1">
                    <mxGeometry x="793" y="280" width="21" height="30" as="geometry"/>
                </mxCell>
                <mxCell id="28" value="" style="verticalAlign=bottom;endArrow=none;dashed=1;endSize=8;endFill=0;horizontal=1;html=1;" parent="1" target="27" edge="1">
                    <mxGeometry relative="1" as="geometry">
                        <mxPoint x="976.5" y="420" as="sourcePoint"/>
                        <mxPoint x="976.0033333333333" y="120" as="targetPoint"/>
                    </mxGeometry>
                </mxCell>
                <mxCell id="27" value="" style="rounded=0;whiteSpace=wrap;html=1;" parent="1" vertex="1">
                    <mxGeometry x="966" y="310" width="21" height="130" as="geometry"/>
                </mxCell>
                <mxCell id="30" value="Verificar Dinero" style="fontStyle=0;" parent="1" vertex="1">
                    <mxGeometry x="361" y="50" width="120" height="40" as="geometry"/>
                </mxCell>
                <mxCell id="32" value="&lt;br&gt;" style="verticalAlign=bottom;endArrow=none;dashed=1;endSize=8;endFill=0;horizontal=1;html=1;startArrow=none;" parent="1" edge="1">
                    <mxGeometry relative="1" as="geometry">
                        <mxPoint x="421" y="520" as="sourcePoint"/>
                        <mxPoint x="420.5033333333331" y="90" as="targetPoint"/>
                    </mxGeometry>
                </mxCell>
                <mxCell id="43" value="" style="rounded=0;whiteSpace=wrap;html=1;" parent="1" vertex="1">
                    <mxGeometry x="410.5" y="244" width="21" height="106" as="geometry"/>
                </mxCell>
                <mxCell id="44" value="&lt;br&gt;" style="html=1;verticalAlign=top;endArrow=block;horizontal=0;" parent="1" edge="1">
                    <mxGeometry width="80" relative="1" as="geometry">
                        <mxPoint x="245" y="244.41" as="sourcePoint"/>
                        <mxPoint x="410" y="244" as="targetPoint"/>
                    </mxGeometry>
                </mxCell>
                <mxCell id="45" value="Validar el dinero" style="edgeLabel;html=1;align=center;verticalAlign=bottom;resizable=0;points=[];horizontal=1;fontSize=14;" parent="44" vertex="1" connectable="0">
                    <mxGeometry x="-0.1846" y="4" relative="1" as="geometry">
                        <mxPoint y="30" as="offset"/>
                    </mxGeometry>
                </mxCell>
                <mxCell id="50" value="&lt;br&gt;" style="html=1;verticalAlign=top;endArrow=none;horizontal=0;endFill=0;startArrow=classic;startFill=1;entryX=0.25;entryY=1;entryDx=0;entryDy=0;" parent="1" target="43" edge="1">
                    <mxGeometry width="80" relative="1" as="geometry">
                        <mxPoint x="245" y="350" as="sourcePoint"/>
                        <mxPoint x="405" y="350" as="targetPoint"/>
                    </mxGeometry>
                </mxCell>
                <mxCell id="51" value="Devolucion de dinero" style="edgeLabel;html=1;align=center;verticalAlign=bottom;resizable=0;points=[];horizontal=1;fontSize=14;" parent="50" vertex="1" connectable="0">
                    <mxGeometry x="-0.1846" y="4" relative="1" as="geometry">
                        <mxPoint x="10" y="2" as="offset"/>
                    </mxGeometry>
                </mxCell>
                <mxCell id="60" value="&lt;br&gt;" style="verticalAlign=bottom;endArrow=none;dashed=1;endSize=8;endFill=0;horizontal=1;html=1;startArrow=none;" parent="1" edge="1">
                    <mxGeometry relative="1" as="geometry">
                        <mxPoint x="1166.5" y="520" as="sourcePoint"/>
                        <mxPoint x="1166.003333333333" y="90" as="targetPoint"/>
                    </mxGeometry>
                </mxCell>
                <mxCell id="61" value="Verificar Devolucion De dinero" style="fontStyle=0;" parent="1" vertex="1">
                    <mxGeometry x="1086.5" y="50" width="180" height="40" as="geometry"/>
                </mxCell>
                <mxCell id="62" value="" style="rounded=0;whiteSpace=wrap;html=1;" parent="1" vertex="1">
                    <mxGeometry x="1156.5" y="400" width="20.5" height="90" as="geometry"/>
                </mxCell>
                <mxCell id="64" value="&lt;br&gt;" style="html=1;verticalAlign=top;endArrow=block;horizontal=0;exitX=1;exitY=0.75;exitDx=0;exitDy=0;" parent="1" edge="1">
                    <mxGeometry width="80" relative="1" as="geometry">
                        <mxPoint x="990.5" y="400" as="sourcePoint"/>
                        <mxPoint x="1156.5" y="400" as="targetPoint"/>
                    </mxGeometry>
                </mxCell>
                <mxCell id="65" value="Calcular Devolucion" style="edgeLabel;html=1;align=center;verticalAlign=bottom;resizable=0;points=[];horizontal=1;fontSize=14;" parent="64" vertex="1" connectable="0">
                    <mxGeometry x="-0.1846" y="4" relative="1" as="geometry">
                        <mxPoint x="18" as="offset"/>
                    </mxGeometry>
                </mxCell>
                <mxCell id="66" value="&lt;br&gt;" style="html=1;verticalAlign=top;endArrow=block;horizontal=0;exitX=1;exitY=1;exitDx=0;exitDy=0;" parent="1" source="25" edge="1">
                    <mxGeometry width="80" relative="1" as="geometry">
                        <mxPoint x="820" y="310" as="sourcePoint"/>
                        <mxPoint x="966" y="310" as="targetPoint"/>
                    </mxGeometry>
                </mxCell>
                <mxCell id="67" value="Si hay Producto" style="edgeLabel;html=1;align=center;verticalAlign=bottom;resizable=0;points=[];horizontal=1;fontSize=14;" parent="66" vertex="1" connectable="0">
                    <mxGeometry x="-0.1846" y="4" relative="1" as="geometry">
                        <mxPoint x="24" as="offset"/>
                    </mxGeometry>
                </mxCell>
                <mxCell id="69" value="&lt;br&gt;" style="html=1;verticalAlign=top;endArrow=none;horizontal=0;startArrow=classic;startFill=1;endFill=0;entryX=0;entryY=1;entryDx=0;entryDy=0;exitX=1.012;exitY=0.919;exitDx=0;exitDy=0;exitPerimeter=0;" parent="1" source="14" target="62" edge="1">
                    <mxGeometry width="80" relative="1" as="geometry">
                        <mxPoint x="250" y="490" as="sourcePoint"/>
                        <mxPoint x="1150" y="490" as="targetPoint"/>
                    </mxGeometry>
                </mxCell>
                <mxCell id="70" value="Devuelta" style="edgeLabel;html=1;align=center;verticalAlign=bottom;resizable=0;points=[];horizontal=1;fontSize=14;" parent="69" vertex="1" connectable="0">
                    <mxGeometry x="-0.1846" y="4" relative="1" as="geometry">
                        <mxPoint x="96" y="4" as="offset"/>
                    </mxGeometry>
                </mxCell>
                <mxCell id="78" value="&lt;br&gt;" style="html=1;verticalAlign=top;endArrow=block;horizontal=0;entryX=0;entryY=0;entryDx=0;entryDy=0;" parent="1" target="81" edge="1">
                    <mxGeometry width="80" relative="1" as="geometry">
                        <mxPoint x="431.5" y="270" as="sourcePoint"/>
                        <mxPoint x="600" y="270" as="targetPoint"/>
                    </mxGeometry>
                </mxCell>
                <mxCell id="79" value="Validar el codigo" style="edgeLabel;html=1;align=center;verticalAlign=bottom;resizable=0;points=[];horizontal=1;fontSize=14;" parent="78" vertex="1" connectable="0">
                    <mxGeometry x="-0.1846" y="4" relative="1" as="geometry">
                        <mxPoint y="30" as="offset"/>
                    </mxGeometry>
                </mxCell>
                <mxCell id="80" value="Verificar Codigo" style="fontStyle=0;" parent="1" vertex="1">
                    <mxGeometry x="554" y="50" width="120" height="40" as="geometry"/>
                </mxCell>
                <mxCell id="82" value="&lt;br&gt;" style="verticalAlign=bottom;endArrow=none;dashed=1;endSize=8;endFill=0;horizontal=1;html=1;startArrow=none;" parent="1" edge="1">
                    <mxGeometry relative="1" as="geometry">
                        <mxPoint x="450" y="1310" as="sourcePoint"/>
                        <mxPoint x="449.5033333333331" y="880" as="targetPoint"/>
                    </mxGeometry>
                </mxCell>
                <mxCell id="85" value="" style="verticalAlign=bottom;endArrow=none;dashed=1;endSize=8;endFill=0;horizontal=1;html=1;startArrow=none;" parent="1" target="81" edge="1">
                    <mxGeometry relative="1" as="geometry">
                        <mxPoint x="613.9099999999999" y="520" as="sourcePoint"/>
                        <mxPoint x="613.413333333333" y="90" as="targetPoint"/>
                    </mxGeometry>
                </mxCell>
                <mxCell id="81" value="" style="rounded=0;whiteSpace=wrap;html=1;" parent="1" vertex="1">
                    <mxGeometry x="603.5" y="270" width="21" height="130" as="geometry"/>
                </mxCell>
                <mxCell id="86" value="&lt;br&gt;" style="html=1;verticalAlign=top;endArrow=none;horizontal=0;endFill=0;startArrow=classic;startFill=1;entryX=0;entryY=1;entryDx=0;entryDy=0;" parent="1" target="81" edge="1">
                    <mxGeometry width="80" relative="1" as="geometry">
                        <mxPoint x="245" y="400" as="sourcePoint"/>
                        <mxPoint x="595" y="399.17" as="targetPoint"/>
                    </mxGeometry>
                </mxCell>
                <mxCell id="87" value="Codigo erroneo" style="edgeLabel;html=1;align=center;verticalAlign=bottom;resizable=0;points=[];horizontal=1;fontSize=14;" parent="86" vertex="1" connectable="0">
                    <mxGeometry x="-0.1846" y="4" relative="1" as="geometry">
                        <mxPoint x="79" y="4" as="offset"/>
                    </mxGeometry>
                </mxCell>
            </root>
        </mxGraphModel>
    </diagram>
</mxfile>